<svg xmlns="http://www.w3.org/2000/svg" viewBox="0 0 350 350"><defs><style>.cls-1{fill:#071e35;}</style></defs><title>iso</title><g id="Layer_9" data-name="Layer 9"><path class="cls-1" d="M175,9.78A165.22,165.22,0,1,0,340.22,175,165.22,165.22,0,0,0,175,9.78Zm44.26,50.41c7.41-4,15.41-7.31,24.1-8.39a39.51,39.51,0,0,1,13.14.43c1.09.19,2.16.53,3.22.81s2.12.68,3.12,1.16l1.52.67,1.47.77c1,.48,1.92,1.15,2.88,1.74s1.76,1.41,2.6,2.14l1.18,1.16.59.58.54.63,1.07,1.26c.36.42.66.89,1,1.33a21.5,21.5,0,0,1,1.74,2.81,32,32,0,0,1,3.66,12.38,50,50,0,0,1-.54,12.55,80.67,80.67,0,0,1-3.09,12A114.47,114.47,0,0,0,278.79,92,50.87,50.87,0,0,0,278,80.11a28.66,28.66,0,0,0-4.15-10.72l-.8-1.17c-.26-.4-.59-.74-.87-1.12s-.58-.74-.9-1.09l-1-1-.49-.51-.53-.47-1.07-.93c-.74-.57-1.47-1.12-2.23-1.63s-1.58-.91-2.47-1.28l-1.28-.58-1.33-.49c-.86-.36-1.78-.57-2.67-.86s-1.82-.45-2.76-.57l-1.39-.21c-.46,0-.94-.07-1.4-.12-.94-.1-1.89-.08-2.83-.11a38.87,38.87,0,0,0-5.68.48,53.07,53.07,0,0,0-11.18,3,85.18,85.18,0,0,0-10.72,5c-3.49,1.88-6.88,4-10.2,6.23-1.81,1.21-3.59,2.47-5.35,3.76a51.53,51.53,0,0,0-5.46-3.48A132.2,132.2,0,0,1,219.26,60.19ZM231,123.8c-6,15.39-20.92,24-33.31,19.13s-17.56-21.23-11.56-36.63,20.91-24,33.3-19.13S237,108.4,231,123.8Zm-44.9-54.58c11.51,3.67,19.48,8.49,24.75,14-11.22.23-22.6,8.83-27.81,22.18-6.5,16.69-.89,34.46,12.54,39.69a21.17,21.17,0,0,0,5.86,1.37,109.17,109.17,0,0,1-13.95,14.86c-7.57,6.91-19.95,16.75-32.54,20.54a23.13,23.13,0,0,1-5.91,1.3l-.17,0,0,0c-4.94.31-9.22-1.71-11-8.44l-.06-.22a174.18,174.18,0,0,1-5.93-24c-1.17-5.63-2.23-11.77-2.94-18.08-.27-1.92-.41-3-.41-3l.12.33,0-.38c12.2,1.57,25.35-7.37,31.06-22,5.49-14.08,2.35-28.94-6.84-36.38C161.19,67.85,172,67,186.08,69.22ZM123.55,125.3C111.16,120.47,106,104.08,112,88.68s20.91-24,33.3-19.13,17.57,21.23,11.57,36.62S135.93,130.13,123.55,125.3ZM105.71,35.37C112.56,32,120,29.31,127.9,28.63a36.4,36.4,0,0,1,12,.95A30.61,30.61,0,0,1,151,35,36.33,36.33,0,0,1,159.26,44a48,48,0,0,1,5.15,10.87A54.24,54.24,0,0,1,166,60.69l.82,4.45c-2.44.15-4.55.39-6.22.64l-.23-1.18-.14-.69-.11-.68c-.08-.41-.15-.84-.25-1.26a45.7,45.7,0,0,0-1.4-5.09A42.25,42.25,0,0,0,154,47.37a31,31,0,0,0-6.68-7.72,25.91,25.91,0,0,0-8.9-4.74c-.41-.12-.8-.29-1.22-.38L136,34.27,134.69,34c-.42-.09-.86-.11-1.29-.17-.87-.07-1.73-.25-2.61-.26l-2.64,0A52.83,52.83,0,0,0,117.47,35c-.89.21-1.79.38-2.67.63l-2.64.79c-1.77.48-3.49,1.18-5.23,1.81a177.28,177.28,0,0,0-20.37,9.43A115.62,115.62,0,0,1,105.71,35.37ZM46.57,262.24c-29.74-71-15-109.87-.48-127.78a19.08,19.08,0,0,1,15.67-7l1.69.78-.12.1a8.94,8.94,0,0,1,1.5,1.38c8.88,7.85,55.11,50.06,71.38,91.89,6.56-1.21,26.48-1.91,44-14.46l1.22,2.39c-6.35,8.19-21.35,23.4-44.83,23.15h0a2.9,2.9,0,0,1-.87.14h-.22a8.52,8.52,0,0,1-1.43,0h0c-14.54-1.14-59.43-32.61-80.16-90.06-1.07,12.93,1.14,31.36,1.14,31.36-3.9-7.24-5.94-22-5.94-22-2.6,15.15,1.51,43,1.51,43-6.57-10.63-7.74-19.28-7.74-19.28,1.08,15,4.69,44.65,4.69,44.65-4.86-6.94-9.9-24.42-9.9-24.42C37.49,235.43,46.57,262.24,46.57,262.24Zm132.6,13.61c-8.55,8.3-66.31,11.73-120-20.44,9.84,8.1,28.26,17.31,28.26,17.31-8.22-.21-19.23-6.07-19.23-6.07,11.87,9.77,38.09,20,38.09,20-12.49.43-20.57-2.85-20.57-2.85,13.59,6.52,41.08,18.08,41.08,18.08-8.43.78-26.11-3.51-26.11-3.51,34,19.67,61.81,25.09,61.81,25.09-29.11-3.59-51-10.46-67.32-18.78h0A114.06,114.06,0,0,1,76,292.56h0c-2.37-1.88-4.54-3.78-6.55-5.69l0-.05q-3-2.83-5.43-5.69l-.1-.12c-.38-.43-.75-.87-1.11-1.3l-.09-.11q-1.73-2.1-3.21-4.17l-.15-.21-.8-1.15-.16-.24c-.28-.42-.56-.83-.83-1.25l-.05-.08q-.45-.69-.87-1.38h0l-.76-1.28-.18-.3c-.19-.33-.37-.66-.55-1-.07-.11-.13-.23-.2-.35-.18-.33-.36-.66-.53-1l-.15-.27-.64-1.27,0-.06L53,264.46c-.06-.12-.11-.25-.17-.37-.13-.28-.26-.56-.38-.85l-.18-.4-.35-.83-.15-.36c-.16-.39-.32-.77-.46-1.16a.08.08,0,0,1,0-.05c-.13-.34-.26-.68-.37-1s-.21-.68-.31-1v0c-.09-.31-.16-.62-.23-.92,0-.07,0-.13,0-.2s-.08-.38-.11-.56a17.9,17.9,0,0,1,2.44-12.89c.82-1.31,2.81-3,4.36-3l.89,0h1.45l.26,0h1l.6,0h.61l.31,0,.41,0,.6,0,.46,0,.67,0,.46,0,.76.05.46,0,.83.05.24,0,.24,0,.42,0,.41,0,.29,0,.28,0,.44,0,.45,0,.55,0,1,.08.52,0,.57.05.56,0,.23,0,.22,0,1.35.11.16,0h.15l1.73.16,1.79.17.41,0,.71.07.71.07.31,0,.3,0,1.27.13.71.08,1.24.13.74.09,1.25.14.4.05.4,0,.62.07.61.08.86.1,1.21.15.92.12,1.21.16.94.13,1.22.17,1,.13,1.24.18.49.07.49.07.63.1.63.09,1,.15,1.27.2.51.08.51.08.64.11.64.1.52.09.52.08.65.11.66.11,1,.18.68.12.68.12.5.09.51.09.69.13.7.13.5.09.49.09,1.31.25h0l.17,0,.92.18,1.6.32.82.17,1.79.37.65.13q2.46.52,4.92,1.09l.72.17,1.74.41.92.23,1.55.38,1,.25,1.48.37,1,.28,1.43.38,1.06.29,1.41.39,1.08.31,1.37.4,1.09.33,1.37.41,1.09.34,1.35.42,1.09.35,1.33.44L147,256l1.31.46,1.09.38,1.26.45A103,103,0,0,1,172,266.87L170,265.82c.82.44,1.6.9,2.39,1.36,3-3.8,14.65-19.6,19.82-38.6,2,3,4.71,7.25,7,10.79C197.91,250.57,193.43,264.81,179.17,275.85ZM274.49,301c-72.63-33.91-102.26-123.21-102.26-123.21s6.77-4.62,13.76-10c0,0,39.36,77.3,123.26,96.54A166.78,166.78,0,0,1,274.49,301Z"/><path class="cls-1" d="M150.72,257.3l-.05,0h0Z"/></g></svg>